<?xml version="1.0" encoding="utf-8"?>
<!-- Generator: Adobe Illustrator 22.1.0, SVG Export Plug-In . SVG Version: 6.00 Build 0)  -->
<svg version="1.1" id="Ebene_1" xmlns="http://www.w3.org/2000/svg" xmlns:xlink="http://www.w3.org/1999/xlink" x="0px" y="0px"
	 viewBox="0 0 1933.8 488.5" style="enable-background:new 0 0 1933.8 488.5;" xml:space="preserve">
<style type="text/css">
	.st0{fill:#3A4B6D;}
	.st1{fill:#5EF0AA;}
	.st2{fill:#FFFFFF;}
</style>
<g>
	<g>
		<g>
			<polygon class="st0" points="1034.1,402.7 1099.4,402.7 1099.4,315.1 1034.1,402.7 			"/>
			<polygon class="st0" points="1206,402.7 1271.3,402.7 1271.3,85.7 1271.3,85.7 1206,173.3 			"/>
			<polygon class="st0" points="1493.5,324.1 1422.1,85.7 1349.6,85.7 1459.5,402.7 1527.7,402.7 1638,85.7 1565.3,85.7 			"/>
			<polygon class="st0" points="1677.9,85.7 1677.9,138.6 1773.6,138.6 1773.6,402.7 1839,402.7 1839,138.6 1936,138.6 1936,85.7 
							"/>
		</g>
		<g>
			<path class="st1" d="M712.2,143.5c8.9-6.7,21.3-10.1,37.2-10.1c16.5,0,29.4,4,38.5,12.1c9.1,8.1,13.7,19.3,13.7,33.9h65.3
				c0-19-4.9-36-14.7-50.9c-9.8-14.9-23.5-26.5-41.3-34.7c-17.7-8.2-37.9-12.3-60.5-12.3c-22.5,0-42.8,3.8-60.8,11.3
				c-18.1,7.5-31.9,18-41.6,31.5c-9.7,13.4-14.5,28.7-14.5,45.8c0,32.9,18,59.1,54,78.6c13.2,7.1,31.1,14.3,53.8,21.7
				c22.6,7.3,38.3,14.3,47,20.9c8.7,6.6,13.1,16.1,13.1,28.4c0,11.3-4.4,20.1-13.1,26.4s-20.8,9.5-36.4,9.5
				c-41.8,0-62.7-17.5-62.7-52.5h-65.5c0,20.5,5.3,38.5,15.8,54c10.5,15.5,25.8,27.8,45.8,36.7c20,8.9,42.2,13.4,66.6,13.4
				c35.1,0,63.1-7.8,83.8-23.4c20.8-15.6,31.1-37.1,31.1-64.5c0-24.7-8.5-45.3-25.5-61.8c-17-16.5-44-30.4-81.2-41.6
				c-20.2-6.1-35.4-12.6-45.8-19.6c-10.4-7-15.6-15.6-15.6-25.9C698.9,159.2,703.3,150.3,712.2,143.5z"/>
			<polygon class="st1" points="1164.7,85.7 1099.4,85.7 1099.4,214.2 972.1,214.2 972.1,85.7 906.8,85.7 906.8,402.7 972.1,402.7 
				972.1,266.9 1099.4,266.9 1099.4,402.7 1099.4,402.7 1164.7,315.1 			"/>
			<polygon class="st1" points="1271.3,85.7 1271.3,173.3 1336.6,85.7 			"/>
		</g>
	</g>
	<g>
		<circle class="st1" cx="244.2" cy="244.2" r="244.2"/>
		<g>
			<g>
				<polygon class="st2" points="113.8,381.7 170.4,381.7 170.4,305.7 113.8,381.7 				"/>
				<polygon class="st2" points="262.1,182.7 262.1,381.7 318.8,381.7 318.8,106.7 318.8,106.7 				"/>
			</g>
			<g>
				<polygon class="st2" points="170.4,380.8 226.4,305.7 226.4,106.7 170.4,106.7 				"/>
				<polygon class="st2" points="318.1,106.7 318.1,182.7 374.7,106.7 				"/>
			</g>
		</g>
	</g>
</g>
</svg>
